<?xml version="1.0" standalone="no"?>
<!DOCTYPE svg PUBLIC "-//W3C//DTD SVG 20010904//EN"
 "http://www.w3.org/TR/2001/REC-SVG-20010904/DTD/svg10.dtd">
<svg version="1.0" xmlns="http://www.w3.org/2000/svg"
 width="223.000000pt" height="223.000000pt" viewBox="0 0 223.000000 223.000000"
 preserveAspectRatio="xMidYMid meet">
<metadata>
Created by potrace 1.11, written by Peter Selinger 2001-2013
</metadata>
<g transform="translate(0.000000,223.000000) scale(0.100000,-0.100000)"
fill="#000000" stroke="none">
<path d="M1008 2215 c-2 -2 -24 -5 -50 -8 -85 -10 -211 -48 -305 -92 -335
-156 -556 -444 -628 -816 -11 -55 -14 -270 -5 -324 17 -104 22 -122 52 -212
75 -229 243 -440 451 -571 184 -116 368 -169 591 -170 496 -3 923 316 1065
793 97 328 28 694 -182 970 -101 133 -286 277 -437 341 -118 49 -175 65 -301
83 -56 8 -244 12 -251 6z m252 -110 c392 -50 744 -370 831 -755 21 -90 24
-127 23 -255 -1 -155 -23 -249 -90 -394 -123 -264 -350 -458 -629 -539 -100
-30 -153 -36 -300 -35 -197 1 -359 50 -528 159 -142 92 -287 260 -359 415
-176 380 -96 823 201 1119 227 226 528 327 851 285z"/>
<path d="M1009 1916 c-2 -2 -22 -6 -44 -9 -84 -12 -199 -59 -293 -120 -147
-96 -264 -250 -322 -424 -29 -87 -33 -111 -34 -213 -2 -170 18 -267 77 -385
141 -283 454 -466 760 -446 16 1 17 26 17 375 l0 374 170 -2 170 -1 0 53 0 52
-170 0 -170 0 0 175 c0 109 -4 175 -10 176 -5 0 -26 1 -45 1 -19 0 -38 -1 -43
-1 -4 -1 -7 -79 -7 -173 l0 -173 -170 -5 -169 -5 -2 -42 c0 -23 2 -46 5 -50 3
-4 80 -8 171 -8 l165 0 1 -310 c0 -170 -2 -316 -4 -322 -8 -23 -157 13 -257
62 -428 210 -522 784 -182 1117 202 197 500 258 758 154 262 -107 439 -370
439 -651 l0 -66 52 3 53 3 -1 50 c-7 385 -247 697 -609 791 -62 15 -294 31
-306 20z"/>
</g>
</svg>
