<?xml version="1.0" encoding="utf-8"?>
<!-- Generator: Adobe Illustrator 21.1.0, SVG Export Plug-In . SVG Version: 6.00 Build 0)  -->
<svg version="1.1" id="Layer_1" xmlns="http://www.w3.org/2000/svg" xmlns:xlink="http://www.w3.org/1999/xlink" x="0px" y="0px"
	 viewBox="0 0 547.7 129.9" style="enable-background:new 0 0 547.7 129.9;" xml:space="preserve">
<style type="text/css">
	.st0{fill:#FAAF42;}
	.st1{fill:#414142;}
</style>
<g>
	<g>
		<path class="st0" d="M64.3,1.2C28.9,1.2,0,30.1,0,65.6c0,35.5,28.9,64.3,64.3,64.3c35.5,0,64.3-28.9,64.3-64.3
			C128.7,30.1,99.8,1.2,64.3,1.2z M64.3,123.9C32.2,123.9,6,97.7,6,65.6C6,33.4,32.2,7.2,64.3,7.2c32.2,0,58.3,26.2,58.3,58.3
			C122.7,97.7,96.5,123.9,64.3,123.9z"/>
		<path class="st0" d="M64.3,18.7c-25.9,0-46.9,21-46.9,46.9c0,25.9,21,46.9,46.9,46.9h3V68.6h19.8v-6H67.3V41.9h-6v20.6H41.5v6
			h19.8v37.8c-21.2-1.5-37.9-19.2-37.9-40.8c0-22.5,18.3-40.9,40.9-40.9c22.5,0,40.9,18.3,40.9,40.9v4h6v-4
			C111.2,39.7,90.2,18.7,64.3,18.7z"/>
	</g>
	<g>
		<g>
			<path class="st1" d="M191.1,60.4c-4,0-7.7-0.7-11.1-2.2c-3.4-1.5-6.3-3.4-8.8-5.9c-2.5-2.5-4.4-5.5-5.8-8.9
				c-1.4-3.4-2.1-7.1-2.1-10.9v-0.2c0-3.8,0.7-7.4,2.1-10.9c1.4-3.4,3.3-6.4,5.8-9c2.5-2.6,5.4-4.6,8.9-6.1
				c3.4-1.5,7.2-2.2,11.2-2.2c2.5,0,4.8,0.2,6.8,0.6c2,0.4,3.9,1,5.7,1.7c1.7,0.8,3.3,1.7,4.8,2.7c1.5,1,2.9,2.2,4.3,3.5l-4.3,4.5
				c-2.4-2.2-4.9-4-7.6-5.4c-2.7-1.4-6-2.1-9.8-2.1c-3.1,0-5.9,0.6-8.5,1.7c-2.6,1.1-4.9,2.7-6.8,4.7c-1.9,2-3.4,4.4-4.5,7.1
				c-1.1,2.7-1.6,5.6-1.6,8.8v0.1c0,3.2,0.5,6.1,1.6,8.8c1.1,2.7,2.6,5.1,4.5,7.1c1.9,2,4.2,3.6,6.8,4.8c2.6,1.2,5.4,1.8,8.5,1.8
				c3.8,0,7.1-0.7,9.8-2.1c2.7-1.4,5.4-3.3,8.1-5.8l4.1,3.9c-1.4,1.5-2.9,2.8-4.5,3.9c-1.6,1.1-3.2,2.2-5,3
				c-1.8,0.8-3.7,1.5-5.8,1.9C195.9,60.2,193.6,60.4,191.1,60.4"/>
			<polygon class="st1" points="224.1,5.2 230.4,5.2 230.4,29.3 262.3,29.3 262.3,5.2 268.5,5.2 268.5,59.5 262.3,59.5 262.3,35 
				230.4,35 230.4,59.5 224.1,59.5 			"/>
			<path class="st1" d="M284.2,5.2H308c3.4,0,6.5,0.5,9.1,1.4c2.7,1,4.9,2.3,6.6,4c1.4,1.3,2.4,2.9,3.2,4.7c0.7,1.8,1.1,3.8,1.1,6
				v0.2c0,2.3-0.4,4.3-1.1,6.1c-0.7,1.8-1.8,3.3-3.1,4.7c-1.3,1.3-2.9,2.4-4.8,3.2c-1.8,0.9-3.8,1.5-6,1.8l17,22.2h-7.7l-16-21.1
				h-0.2h-15.6v21.1h-6.2V5.2z M307.5,32.9c2.1,0,4-0.2,5.7-0.8c1.7-0.5,3.2-1.3,4.5-2.2c1.3-1,2.3-2.1,3-3.5
				c0.7-1.4,1.1-2.9,1.1-4.7v-0.2c0-3.4-1.2-6-3.7-7.9c-2.5-1.9-6-2.8-10.5-2.8h-17.1v22H307.5z"/>
			<rect x="341.9" y="5.2" class="st1" width="6.2" height="54.3"/>
			<path class="st1" d="M383.4,60.3c-4.4,0-8.5-0.7-12.1-2.1c-3.7-1.4-7.1-3.6-10.5-6.5l3.9-4.5c2.9,2.6,5.8,4.5,8.8,5.8
				c3,1.3,6.3,1.9,10.2,1.9c3.7,0,6.7-0.9,9-2.6c2.2-1.7,3.4-3.9,3.4-6.6v-0.2c0-1.2-0.2-2.4-0.6-3.4c-0.4-1-1.2-1.9-2.2-2.8
				c-1.1-0.8-2.5-1.6-4.4-2.2c-1.9-0.7-4.3-1.3-7.2-1.9c-3.2-0.7-5.9-1.5-8.3-2.3c-2.3-0.9-4.3-1.9-5.8-3.2
				c-1.5-1.2-2.7-2.7-3.4-4.4c-0.7-1.7-1.1-3.6-1.1-5.8v-0.2c0-2.1,0.5-4.1,1.3-5.9c0.9-1.8,2.2-3.4,3.8-4.7
				c1.6-1.3,3.6-2.3,5.8-3.1c2.2-0.7,4.6-1.1,7.3-1.1c4.1,0,7.6,0.6,10.6,1.7c3,1.1,6,2.8,8.8,5l-3.6,4.7c-2.6-2.1-5.2-3.6-7.8-4.5
				c-2.6-0.9-5.3-1.4-8.2-1.4c-3.6,0-6.5,0.8-8.6,2.5c-2.1,1.7-3.2,3.8-3.2,6.2v0.2c0,1.3,0.2,2.4,0.6,3.4c0.4,1,1.2,2,2.3,2.8
				c1.1,0.8,2.6,1.6,4.6,2.3c2,0.7,4.5,1.3,7.5,2c6.2,1.4,10.7,3.2,13.6,5.6c2.9,2.4,4.4,5.6,4.4,9.8v0.2c0,2.3-0.5,4.4-1.4,6.3
				c-0.9,1.9-2.2,3.5-3.9,4.8c-1.6,1.4-3.6,2.4-5.9,3.1C388.7,59.9,386.1,60.3,383.4,60.3"/>
			<polygon class="st1" points="428.4,10.8 409.9,10.8 409.9,5.2 453.2,5.2 453.2,10.8 434.7,10.8 434.7,59.5 428.4,59.5 			"/>
		</g>
		<g>
			<path class="st1" d="M191.1,126.9c-4,0-7.7-0.7-11.1-2.2c-3.4-1.5-6.3-3.4-8.8-5.9c-2.5-2.5-4.4-5.5-5.8-8.9
				c-1.4-3.4-2.1-7.1-2.1-10.9v-0.2c0-3.8,0.7-7.4,2.1-10.9c1.4-3.4,3.3-6.4,5.8-9c2.5-2.6,5.4-4.6,8.9-6.1
				c3.4-1.5,7.2-2.2,11.2-2.2c2.5,0,4.8,0.2,6.8,0.6c2,0.4,3.9,1,5.7,1.7c1.7,0.8,3.3,1.7,4.8,2.7c1.5,1,2.9,2.2,4.3,3.5l-4.3,4.5
				c-2.4-2.2-4.9-4-7.6-5.4c-2.7-1.4-6-2.1-9.8-2.1c-3.1,0-5.9,0.6-8.5,1.7c-2.6,1.1-4.9,2.7-6.8,4.7c-1.9,2-3.4,4.4-4.5,7.1
				c-1.1,2.7-1.6,5.6-1.6,8.8v0.1c0,3.2,0.5,6.1,1.6,8.8c1.1,2.7,2.6,5.1,4.5,7.1c1.9,2,4.2,3.6,6.8,4.8c2.6,1.2,5.4,1.8,8.5,1.8
				c3.8,0,7-0.7,9.8-2.1c2.7-1.4,5.4-3.3,8.1-5.8l4.1,3.9c-1.4,1.5-2.9,2.8-4.5,3.9c-1.6,1.1-3.2,2.2-5,3c-1.8,0.8-3.7,1.5-5.8,1.9
				C195.9,126.7,193.6,126.9,191.1,126.9"/>
			<polygon class="st1" points="224.1,71.7 264.1,71.7 264.1,77.2 230.4,77.2 230.4,95.9 260.6,95.9 260.6,101.4 230.4,101.4 
				230.4,120.5 264.5,120.5 264.5,126 224.1,126 			"/>
			<polygon class="st1" points="277.1,71.7 283,71.7 317.8,115.2 317.8,71.7 323.9,71.7 323.9,126 318.9,126 283.2,81.4 283.2,126 
				277.1,126 			"/>
			<polygon class="st1" points="354.1,77.3 335.6,77.3 335.6,71.7 379,71.7 379,77.3 360.4,77.3 360.4,126 354.1,126 			"/>
			<path class="st1" d="M390.7,71.7h23.8c3.4,0,6.5,0.5,9.1,1.4c2.7,1,4.9,2.3,6.6,4c1.4,1.3,2.4,2.9,3.1,4.7c0.7,1.8,1.1,3.8,1.1,6
				V88c0,2.3-0.4,4.3-1.1,6.1c-0.7,1.8-1.8,3.3-3.1,4.7c-1.3,1.3-2.9,2.4-4.8,3.2c-1.8,0.9-3.8,1.5-6,1.8l17,22.2h-7.7l-16-21.1
				h-0.2H397V126h-6.2V71.7z M414,99.4c2.1,0,4-0.2,5.7-0.8c1.7-0.5,3.2-1.2,4.5-2.2c1.3-1,2.3-2.1,3-3.5c0.7-1.4,1.1-2.9,1.1-4.7
				V88c0-3.4-1.2-6-3.7-7.9c-2.5-1.9-6-2.8-10.5-2.8H397v22H414z"/>
			<path class="st1" d="M468.3,71.3h5.8l25.2,54.7h-6.7l-6.5-14.4h-30.1l-6.6,14.4h-6.4L468.3,71.3z M483.8,106.1l-12.6-27.7
				l-12.6,27.7H483.8z"/>
			<polygon class="st1" points="510.3,71.7 516.5,71.7 516.5,120.3 547.7,120.3 547.7,126 510.3,126 			"/>
		</g>
	</g>
</g>
</svg>
